# AST/ASF file generated using VICON BodyLanguage
# -----------------------------------------------
:version 1.10
:name VICON
:units
  mass 1.0
  length 0.45
  angle deg
:documentation
   .ast/.asf automatically generated from VICON data using
   VICON BodyBuilder and BodyLanguage model FoxedUp or BRILLIANT.MOD
:root
   order TX TY TZ RX RY RZ
   axis XYZ
   position 0 0 0  
   orientation 0 0 0 
:bonedata
  begin
     id 1 
     name lhipjoint
     direction 0.621036 -0.695554 0.361275 
     length 2.46325 
     axis 0 0 0  XYZ
  end
  begin
     id 2 
     name lfemur
     direction 0.34202 -0.939693 0  
     length 6.54784  
     axis 0 0 20  XYZ
    dof rx ry rz
    limits (-160.0 20.0)
           (-70.0 70.0)
           (-60.0 70.0)
  end
  begin
     id 3 
     name ltibia
     direction 0.34202 -0.939693 0   
     length 7.84737   
     axis 0 0 20   XYZ
    dof rx
    limits (-10.0 170.0)
  end
  begin
     id 4 
     name lfoot
     direction 0.0790693 -0.217241 0.97291   
     length 2.59747   
     axis -90 7.62852e-016 20   XYZ
    dof rx rz
    limits (-45.0 90.0)
           (-70.0 20.0)
  end
  begin
     id 5 
     name ltoes
     direction 1.53572e-011 -4.21898e-011 1   
     length 1.29919   
     axis -90 7.62852e-016 20   XYZ
    dof rx
    limits (-90.0 20.0)
  end
  begin
     id 6 
     name rhipjoint
     direction -0.602353 -0.708375 0.367935   
     length 2.41867  
     axis 0 0 0  XYZ 
  end
  begin
     id 7 
     name rfemur
     direction -0.34202 -0.939693 0   
     length 6.92065   
     axis 0 0 -20   XYZ
    dof rx ry rz
    limits (-160.0 20.0)
           (-70.0 70.0)
           (-70.0 60.0)
  end
  begin
     id 8 
     name rtibia
     direction -0.34202 -0.939693 0   
     length 7.88883   
     axis 0 0 -20   XYZ
    dof rx
    limits (-10.0 170.0)
 end
 begin
     id 9 
     name rfoot
     direction -0.0768692 -0.211196 0.974416   
     length 2.43714  
     axis -90 -7.62852e-016 -20   XYZ
    dof rx rz
    limits (-45.0 90.0)
           (-20.0 70.0)
  end
  begin
     id 10 
     name rtoes
     direction -1.53575e-011 -4.21933e-011 1   
     length 1.22113   
     axis -90 -7.62852e-016 -20   XYZ
    dof rx
    limits (-90.0 20.0)
  end
  begin
     id 11 
     name lowerback
     direction 0.0197937 0.98943 -0.143655   
     length 2.16931   
     axis 0 0 0   XYZ
    dof rx ry rz
    limits (-20.0 45.0)
           (-30.0 30.0)
           (-30.0 30.0)
  end
  begin
     id 12 
     name upperback
     direction -0.00183968 0.999975 0.00684288   
     length 2.17221   
     axis 0 0 0   XYZ
    dof rx ry rz
    limits (-20.0 45.0)
           (-30.0 30.0)
           (-30.0 30.0)
  end
  begin
     id 13 
     name thorax
     direction -0.00950244 0.997208 0.0740685   
     length 2.22549   
     axis 0 0 0   XYZ
    dof rx ry rz
    limits (-20.0 45.0)
           (-30.0 30.0)
           (-30.0 30.0)
  end
  begin
     id 14 
     name lowerneck
     direction 0.0218238 0.996215 0.0841425   
     length 1.77269   
     axis 0 0 0   XYZ
    dof rx ry rz
    limits (-20.0 45.0)
           (-30.0 30.0)
           (-30.0 30.0)
  end
  begin
     id 15 
     name upperneck
     direction -0.00430652 0.994214 -0.107332   
     length 1.76534   
     axis 0 0 0   XYZ
    dof rx ry rz
    limits (-20.0 45.0)
           (-30.0 30.0)
           (-30.0 30.0)
  end
  begin
     id 16
     name head
     direction -0.00328946 0.998959 -0.0454998  
     length 1.82634  
     axis 0 0 0   XYZ
    dof rx ry rz
    limits (-20.0 45.0)
           (-30.0 30.0)
           (-30.0 30.0)
  end
  begin
     id 17 
     name lclavicle
     direction 0.970962 0.239191 0.00450212  
     length 3.84872  
     axis 0 0 0   XYZ
    dof ry rz
    limits (-20.0 10.0)
           (0.0 20.0)
  end
  begin
     id 18 
     name lhumerus
     direction 1 -4.48966e-011 5.74696e-028   
     length 5.22771   
     axis 180 -30 -90   XYZ
    dof rx ry rz
    limits (-60.0 90.0)
           (-90.0 90.0)
           (-90.0 90.0)
  end
  begin
     id 19
     name lradius
     direction 1 -4.4896e-011 4.25109e-027   
     length 3.45251   
     axis 180 -30 -90   XYZ
    dof rx
    limits (-10.0 170.0)
  end
  begin
     id 20
     name lwrist
     direction 1 -4.48971e-011 1.15382e-027   
     length 1.72626   
     axis -5.52449e-016 90 90   XYZ
    dof ry
    limits (-180.0 0.0)
 end
  begin
     id 21 
     name lhand
     direction 1 -4.49034e-011 2.30765e-027   
     length 0.552119   
     axis -1.47248e-015 90 90   XYZ
    dof rx rz
    limits (-90.0 90.0)
           (-45.0 45.0)
  end
  begin
     id 22 
     name lfingers
     direction 1 -4.48951e-011 4.61529e-027   
     length 0.445133   
     axis -2.94495e-015 90 90   XYZ
    dof rx
    limits (0.0 90.0)
  end
  begin
     id 23
     name lthumb
     direction 0.707107 -6.34991e-011 0.707107   
     length 0.639124   
     axis -90 45 2.85299e-015   XYZ
    dof rx rz
    limits (-45.0 45.0)
           (-45.0 45.0)
  end
  begin
     id 24 
     name rclavicle
     direction -0.97424 0.222511 -0.0366699   
     length 3.73439  
     axis 0 0 0   XYZ 
    dof ry rz
    limits (-10.0 20.0)
           (-20.0 0.0)
  end
  begin
     id 25 
     name rhumerus
     direction -1 -4.48956e-011 -4.97258e-028  
     length 5.2398   
     axis 180 30 90   XYZ
    dof rx ry rz
    limits (-90.0 60.0)
           (-90.0 90.0)
           (-90.0 90.0)
  end
  begin
     id 26 
     name rradius
     direction -1 -4.4897e-011 -1.72611e-027   
     length 3.48042   
     axis 180 30 90   XYZ
    dof rx
    limits (-10.0 170.0)
  end
  begin
     id 27 
     name rwrist
     direction -1 -4.48976e-011 1.15382e-027   
     length 1.74021   
     axis -5.52449e-016 -90 -90   XYZ
    dof ry
    limits (-180.0 0.0)
  end
  begin
     id 28
     name rhand
     direction -1 -4.48963e-011 2.30765e-027   
     length 0.618713   
     axis -1.47248e-015 -90 -90   XYZ
    dof rx rz
    limits (-90.0 90.0)
           (-45.0 45.0)
  end
  begin
     id 29
     name rfingers
     direction -1 -4.4888e-011 4.61529e-027   
     length 0.498823   
     axis -2.94495e-015 -90 -90   XYZ
    dof rx
    limits (0.0 90.0)
  end
  begin
     id 30
     name rthumb
     direction -0.707107 -6.34968e-011 0.707107   
     length 0.716213   
     axis -90 -45 -2.85299e-015   XYZ
    dof rx rz
    limits (-45.0 45.0)
           (-45.0 45.0)
  end
:hierarchy
  begin
    root lhipjoint rhipjoint lowerback
    lhipjoint lfemur
    lfemur ltibia
    ltibia lfoot
    lfoot ltoes
    rhipjoint rfemur
    rfemur rtibia
    rtibia rfoot
    rfoot rtoes
    lowerback upperback
    upperback thorax
    thorax lowerneck lclavicle rclavicle
    lowerneck upperneck
    upperneck head
    lclavicle lhumerus
    lhumerus lradius
    lradius lwrist
    lwrist lhand lthumb
    lhand lfingers
    rclavicle rhumerus
    rhumerus rradius
    rradius rwrist
    rwrist rhand rthumb
    rhand rfingers
  end

#!OML:ASF G:\JayActor3\Patient Classification 1\Patient 1\Session 5\male.ASF
:FULLY-SPECIFIED
:DEGREES
64
root 49.9173 16.1447 -4.62605 107.692 -86.4769 -109.928
lowerback 1.78232 -0.470325 2.51972
upperback 2.94898 -0.657801 -0.0536846
thorax 1.99878 -0.293467 -1.46714
lowerneck -7.47707 -0.390049 1.65806
upperneck 9.16312 -0.856717 0.947695
head 4.36339 -0.331676 -0.030551
rclavicle 2.78299e-015 6.75868e-015
rhumerus -31.6884 -10.3735 -85.4473
rradius 26.08
rwrist 2.87954
rhand -18.8046 -9.59255
rfingers 7.12502
rthumb 7.49372 -39.4398
lclavicle 2.78299e-015 6.75868e-015
lhumerus -31.2015 1.17296 86.0717
lradius 25.7617
lwrist 18.6719
lhand -19.7447 15.1046
lfingers 7.12502
lthumb 6.58626 44.9822
rfemur -12.2609 5.66035 21.8487
rtibia 41.2102
rfoot -22.4659 -9.96857
rtoes -0.316672
lfemur -1.75604 9.01839 -17.1394
ltibia 23.94
lfoot -19.0306 2.45462
ltoes -5.27309
65
root 49.9089 16.1455 -4.63575 108.213 -86.4388 -110.448
lowerback 1.76819 -0.455344 2.55248
upperback 2.93817 -0.637899 -0.0417647
thorax 1.99632 -0.283006 -1.47334
lowerneck -7.44864 -0.395676 1.66784
upperneck 9.08885 -0.861567 0.936252
head 4.33061 -0.334775 -0.0362347
rclavicle -2.68359e-015 -1.07344e-014
rhumerus -31.6806 -10.3423 -85.4398
rradius 26.0596
rwrist 2.90276
rhand -18.7969 -9.60819
rfingers 7.12502
rthumb 7.50122 -39.4552
lclavicle -2.68359e-015 -1.07344e-014
lhumerus -31.3079 1.20543 86.0949
lradius 25.7764
lwrist 18.6951
lhand -19.7321 15.176
lfingers 7.12502
lthumb 6.59841 45.0532
rfemur -12.0475 5.69671 21.9358
rtibia 40.8988
rfoot -22.5893 -10.0307
rtoes -0.0436491
lfemur -1.69585 8.87827 -17.1031
ltibia 23.9169
lfoot -19.0611 2.64023
ltoes -5.29784
66
root 49.9009 16.146 -4.64575 108.956 -86.3976 -111.191
lowerback 1.75658 -0.44244 2.57793
upperback 2.93318 -0.620922 -0.0321844
thorax 1.99835 -0.274084 -1.47786
lowerneck -7.43432 -0.3909 1.68795
upperneck 9.0178 -0.854075 0.925545
head 4.30193 -0.331296 -0.0428092
rclavicle 7.40473e-015 1.19271e-015
rhumerus -31.6499 -10.2908 -85.454
rradius 26.047
rwrist 2.91331
rhand -18.7914 -9.62226
rfingers 7.12502
rthumb 7.50648 -39.4691
lclavicle 7.40473e-015 1.19271e-015
lhumerus -31.4026 1.25766 86.1044
lradius 25.7893
lwrist 18.7072
lhand -19.7191 15.2264
lfingers 7.12502
lthumb 6.61095 45.1032
rfemur -11.8503 5.73228 22.0214
rtibia 40.607
rfoot -22.7075 -10.0848
rtoes 0.250526
lfemur -1.64068 8.75374 -17.069
ltibia 23.9027
lfoot -19.0918 2.84187
ltoes -5.38452
67
root 49.8933 16.1462 -4.65603 109.857 -86.3534 -112.09
lowerback 1.7471 -0.427583 2.60215
upperback 2.92476 -0.601122 -0.0250223
thorax 1.99578 -0.263809 -1.48413
lowerneck -7.40869 -0.38365 1.71137
upperneck 8.95239 -0.843759 0.915691
head 4.27304 -0.326339 -0.0494839
rclavicle -5.36719e-015 -6.36111e-015
rhumerus -31.6197 -10.2341 -85.4761
rradius 26.0469
rwrist 2.91319
rhand -18.7886 -9.63069
rfingers 7.12502
rthumb 7.5092 -39.4774
lclavicle -5.36719e-015 -6.36111e-015
lhumerus -31.5107 1.29373 86.1148
lradius 25.8166
lwrist 18.7292
lhand -19.7081 15.276
lfingers 7.12502
lthumb 6.62159 45.1525
rfemur -11.6724 5.76188 22.1055
rtibia 40.3348
rfoot -22.8252 -10.1269
rtoes 0.579794
lfemur -1.59452 8.64862 -17.0352
ltibia 23.8968
lfoot -19.1211 3.04971
ltoes -5.53116
68
root 49.8861 16.1461 -4.66647 110.805 -86.3083 -113.033
lowerback 1.73512 -0.413669 2.62592
upperback 2.91388 -0.582525 -0.0193952
thorax 1.99203 -0.254136 -1.49173
lowerneck -7.37282 -0.372277 1.73029
upperneck 8.89514 -0.828012 0.911043
head 4.24513 -0.318652 -0.0532604
rclavicle 4.96962e-017 -3.97569e-016
rhumerus -31.5901 -10.1675 -85.5063
rradius 26.06
rwrist 2.89852
rhand -18.7889 -9.63674
rfingers 7.12502
rthumb 7.50889 -39.4835
lclavicle 4.96962e-017 -3.97569e-016
lhumerus -31.6304 1.32027 86.1253
lradius 25.8555
lwrist 18.759
lhand -19.6982 15.3131
lfingers 7.12502
lthumb 6.63121 45.1893
rfemur -11.5112 5.77951 22.1876
rtibia 40.0821
rfoot -22.9443 -10.1567
rtoes 0.942276
lfemur -1.55846 8.56319 -17.0009
ltibia 23.8975
lfoot -19.1437 3.25662
ltoes -5.74036
69
root 49.8792 16.1455 -4.67701 111.754 -86.2674 -113.978
lowerback 1.71812 -0.400419 2.64834
upperback 2.90675 -0.565011 -0.0183277
thorax 1.99488 -0.244877 -1.50331
lowerneck -7.34048 -0.358012 1.74934
upperneck 8.84658 -0.809115 0.910322
head 4.22114 -0.309165 -0.0555878
rclavicle 8.94531e-016 -4.37326e-015
rhumerus -31.5522 -10.1016 -85.5452
rradius 26.0828
rwrist 2.87429
rhand -18.7967 -9.63716
rfingers 7.12502
rthumb 7.50134 -39.4842
lclavicle 8.94531e-016 -4.37326e-015
lhumerus -31.7416 1.3418 86.1318
lradius 25.8906
lwrist 18.7866
lhand -19.6933 15.3402
lfingers 7.12502
lthumb 6.63594 45.2162
rfemur -11.362 5.78012 22.2633
rtibia 39.8472
rfoot -23.0651 -10.1758
rtoes 1.3173
lfemur -1.52743 8.49536 -16.9687
ltibia 23.9021
lfoot -19.1604 3.45014
ltoes -5.98346
70
root 49.8725 16.1448 -4.68753 112.684 -86.232 -114.902
lowerback 1.69149 -0.387989 2.67101
upperback 2.90872 -0.549097 -0.0226455
thorax 2.01241 -0.236125 -1.52068
lowerneck -7.32203 -0.342599 1.7712
upperneck 8.80137 -0.789438 0.910791
head 4.20119 -0.299041 -0.0580277
rclavicle 2.48481e-015 7.95139e-016
rhumerus -31.4956 -10.0411 -85.5941
rradius 26.1155
rwrist 2.84251
rhand -18.8106 -9.64611
rfingers 7.12502
rthumb 7.48794 -39.4936
lclavicle 2.48481e-015 7.95139e-016
lhumerus -31.8296 1.35944 86.1336
lradius 25.9186
lwrist 18.8106
lhand -19.6888 15.3531
lfingers 7.12502
lthumb 6.6402 45.229
rfemur -11.2251 5.76482 22.3313
rtibia 39.6289
rfoot -23.1817 -10.196
rtoes 1.65683
lfemur -1.50139 8.43703 -16.9405
ltibia 23.9075
lfoot -19.1709 3.62535
ltoes -6.21424
71
root 49.866 16.1439 -4.69794 113.627 -86.2047 -115.838
lowerback 1.65688 -0.375688 2.69018
upperback 2.91981 -0.533833 -0.0324575
thorax 2.04378 -0.227488 -1.54182
lowerneck -7.31912 -0.329451 1.79366
upperneck 8.76372 -0.77347 0.912501
head 4.1871 -0.290537 -0.0604457
rclavicle 4.00054e-015 -1.59028e-015
rhumerus -31.4232 -9.97863 -85.6541
rradius 26.1608
rwrist 2.79174
rhand -18.8314 -9.65321
rfingers 7.12502
rthumb 7.46787 -39.5014
lclavicle 4.00054e-015 -1.59028e-015
lhumerus -31.887 1.38308 86.1288
lradius 25.9272
lwrist 18.8208
lhand -19.6813 15.3676
lfingers 7.12502
lthumb 6.64753 45.2433
rfemur -11.0965 5.73963 22.3874
rtibia 39.4251
rfoot -23.2944 -10.2141
rtoes 1.96446
lfemur -1.47516 8.38217 -16.9207
ltibia 23.9114
lfoot -19.179 3.77919
ltoes -6.40212
72
root 49.8598 16.1431 -4.70826 114.666 -86.1817 -116.872
lowerback 1.61911 -0.361737 2.70578
upperback 2.94102 -0.516783 -0.0464894
thorax 2.08746 -0.217794 -1.56535
lowerneck -7.34022 -0.319154 1.81482
upperneck 8.73963 -0.762038 0.914889
head 4.18271 -0.284064 -0.0627692
rclavicle -8.27441e-015 3.18055e-015
rhumerus -31.333 -9.91408 -85.7242
rradius 26.2182
rwrist 2.73061
rhand -18.8573 -9.66537
rfingers 7.12502
rthumb 7.44285 -39.5144
lclavicle -8.27441e-015 3.18055e-015
lhumerus -31.9147 1.41428 86.118
lradius 25.9199
lwrist 18.8177
lhand -19.6703 15.3837
lfingers 7.12502
lthumb 6.65808 45.2591
rfemur -10.9727 5.72143 22.434
rtibia 39.2338
rfoot -23.4045 -10.2364
rtoes 2.24058
lfemur -1.44411 8.33358 -16.9078
ltibia 23.9129
lfoot -19.1874 3.91489
ltoes -6.54546
73
root 49.8537 16.1424 -4.71844 115.826 -86.1624 -118.029
lowerback 1.58312 -0.347867 2.71693
upperback 2.96551 -0.499861 -0.064134
thorax 2.13352 -0.208168 -1.59009
lowerneck -7.37626 -0.308364 1.83594
upperneck 8.72598 -0.750303 0.915354
head 4.18509 -0.277387 -0.0657714
rclavicle -1.51573e-015 7.95139e-016
rhumerus -31.2375 -9.83812 -85.8044
rradius 26.2939
rwrist 2.66757
rhand -18.8718 -9.69382
rfingers 7.12502
rthumb 7.42891 -39.5434
lclavicle -1.51573e-015 7.95139e-016
lhumerus -31.9289 1.4497 86.1018
lradius 25.9068
lwrist 18.8131
lhand -19.6602 15.3997
lfingers 7.12502
lthumb 6.66781 45.2748
rfemur -10.8553 5.7217 22.4712
rtibia 39.0525
rfoot -23.5104 -10.2686
rtoes 2.4782
lfemur -1.41126 8.28692 -16.9035
ltibia 23.9135
lfoot -19.1994 4.03387
ltoes -6.62208
74
root 49.848 16.1418 -4.72867 117.077 -86.1444 -119.276
lowerback 1.55379 -0.335331 2.72245
upperback 2.98608 -0.484384 -0.0822577
thorax 2.17179 -0.199491 -1.61207
lowerneck -7.40876 -0.296152 1.85149
upperneck 8.72419 -0.736305 0.915831
head 4.19105 -0.269742 -0.0676493
rclavicle -1.39149e-015 6.36111e-015
rhumerus -31.1514 -9.73907 -85.8919
rradius 26.3886
rwrist 2.59415
rhand -18.877 -9.73072
rfingers 7.12502
rthumb 7.4239 -39.5805
lclavicle -1.39149e-015 6.36111e-015
lhumerus -31.9475 1.49291 86.0824
lradius 25.8935
lwrist 18.8064
lhand -19.6492 15.4111
lfingers 7.12502
lthumb 6.67849 45.2858
rfemur -10.7429 5.75175 22.5035
rtibia 38.879
rfoot -23.6159 -10.3125
rtoes 2.70358
lfemur -1.38008 8.24683 -16.905
ltibia 23.9156
lfoot -19.2078 4.15043
ltoes -6.70352
75
root 49.8428 16.1414 -4.739 118.359 -86.1267 -120.552
lowerback 1.5378 -0.325127 2.7239
upperback 2.99556 -0.471231 -0.100289
thorax 2.19104 -0.19235 -1.63152
lowerneck -7.42636 -0.282663 1.86484
upperneck 8.73333 -0.720093 0.913391
head 4.19794 -0.26126 -0.0699492
rclavicle 1.44119e-015 -7.95139e-016
rhumerus -31.0867 -9.62243 -85.9826
rradius 26.4979
rwrist 2.52742
rhand -18.8756 -9.76387
rfingers 7.12502
rthumb 7.42524 -39.6136
lclavicle 1.44119e-015 -7.95139e-016
lhumerus -31.9826 1.54003 86.0594
lradius 25.8848
lwrist 18.8011
lhand -19.6363 15.4191
lfingers 7.12502
lthumb 6.69093 45.2934
rfemur -10.6378 5.81424 22.5347
rtibia 38.7112
rfoot -23.7253 -10.3669
rtoes 2.93921
lfemur -1.35585 8.21073 -16.9099
ltibia 23.9218
lfoot -19.2127 4.26568
ltoes -6.7843
76
root 49.8381 16.141 -4.74941 119.622 -86.105 -121.808
lowerback 1.53286 -0.316551 2.72667
upperback 2.99547 -0.459604 -0.117407
thorax 2.19416 -0.186204 -1.65066
lowerneck -7.42586 -0.265472 1.88056
upperneck 8.7463 -0.698516 0.906488
head 4.20257 -0.250364 -0.0737973
rclavicle 2.11209e-015 -1.39149e-014
rhumerus -31.0414 -9.49421 -86.0752
rradius 26.6186
rwrist 2.46632
rhand -18.8705 -9.78305
rfingers 7.12502
rthumb 7.43015 -39.6326
lclavicle 2.11209e-015 -1.39149e-014
lhumerus -32.0372 1.57729 86.0369
lradius 25.8895
lwrist 18.8068
lhand -19.6193 15.4347
lfingers 7.12502
lthumb 6.70737 45.3084
rfemur -10.538 5.90702 22.5713
rtibia 38.5477
rfoot -23.8301 -10.4416
rtoes 3.14995
lfemur -1.33905 8.17829 -16.9125
ltibia 23.934
lfoot -19.2144 4.38354
ltoes -6.88153
77
root 49.834 16.1408 -4.75994 120.866 -86.0812 -123.045
lowerback 1.53971 -0.30877 2.72889
upperback 2.98977 -0.448514 -0.134377
thorax 2.18484 -0.180541 -1.66923
lowerneck -7.41505 -0.248148 1.8996
upperneck 8.76506 -0.676522 0.893769
head 4.20718 -0.239464 -0.0801394
rclavicle -3.52843e-015 5.1684e-015
rhumerus -31.0059 -9.35813 -86.1712
rradius 26.7436
rwrist 2.40581
rhand -18.8723 -9.77752
rfingers 7.12502
rthumb 7.42841 -39.6271
lclavicle -3.52843e-015 5.1684e-015
lhumerus -32.0939 1.62093 86.0096
lradius 25.8911
lwrist 18.8034
lhand -19.6051 15.4603
lfingers 7.12502
lthumb 6.72101 45.3336
rfemur -10.4412 6.02495 22.6115
rtibia 38.388
rfoot -23.93 -10.5323
rtoes 3.3469
lfemur -1.32754 8.14756 -16.9143
ltibia 23.9528
lfoot -19.2147 4.50148
ltoes -6.98318
78
root 49.8304 16.1408 -4.77059 122.014 -86.0528 -124.187
lowerback 1.55159 -0.301631 2.73771
upperback 2.98673 -0.438258 -0.151283
thorax 2.17539 -0.175168 -1.69142
lowerneck -7.41024 -0.225126 1.92722
upperneck 8.77839 -0.647172 0.874885
head 4.21107 -0.224924 -0.089651
rclavicle -5.29264e-015 1.98785e-015
rhumerus -30.9624 -9.22329 -86.2723
rradius 26.8673
rwrist 2.346
rhand -18.8785 -9.7596
rfingers 7.12502
rthumb 7.42246 -39.6094
lclavicle -5.29264e-015 1.98785e-015
lhumerus -32.1405 1.65425 85.9823
lradius 25.8961
lwrist 18.8049
lhand -19.5956 15.4831
lfingers 7.12502
lthumb 6.7302 45.3562
rfemur -10.3463 6.15986 22.6602
rtibia 38.2322
rfoot -24.0245 -10.6392
rtoes 3.51845
lfemur -1.32082 8.11384 -16.9103
ltibia 23.9771
lfoot -19.2117 4.62181
ltoes -7.09409
